# xmcd
#
# Track frame offsets: 
#        150
#        24185
#        48326
#        66793
#        74157
#        110027
#        142121
#        171797
#        191200
#        228248
#        251307
#        275392
#
# Disc length: 3942 seconds
#
# Revision: 5
# Processed by: cddbd v1.5.2PL0 Copyright (c) Steve Scherf et al.
# Submitted via: ExactAudioCopyFreeDBPlugin 1.0
#
DISCID=b00f640c
DTITLE=Yanni - Yanni Live! The Concert Event
DYEAR=2006
DGENRE=New Age
TTITLE0=Rainmaker
TTITLE1=Keys To Imagination
TTITLE2=Enchantment
TTITLE3=Standing In Motion
TTITLE4=On Sacred Ground
TTITLE5=Playtime
TTITLE6=Until The Last Moment
TTITLE7=If I Could Tell You
TTITLE8=For All Seasons
TTITLE9=The Storm
TTITLE10=Prelude
TTITLE11=Nostalgia
EXTD=YEAR: 2006
EXTT0=
EXTT1=
EXTT2=
EXTT3=
EXTT4=
EXTT5=
EXTT6=
EXTT7=
EXTT8=
EXTT9=
EXTT10=
EXTT11=
PLAYORDER=
